<?xml version="1.0" encoding="UTF-8"?>
<svg version="1.1" xmlns="http://www.w3.org/2000/svg" width="318" height="318">
<path d="M0 0 C0.78117188 0.19867676 1.56234375 0.39735352 2.3671875 0.60205078 C30.25939904 7.85207072 54.0893296 21.22143596 75 41 C75.87140625 41.80695312 76.7428125 42.61390625 77.640625 43.4453125 C99.2013175 64.08197532 112.84245076 91.24883037 120 120 C120.48146484 121.88332031 120.48146484 121.88332031 120.97265625 123.8046875 C125.64438645 144.74414264 125.48612873 171.25819436 120 192 C119.70198486 193.17175781 119.70198486 193.17175781 119.39794922 194.3671875 C112.14792928 222.25939904 98.77856404 246.0893296 79 267 C77.78957031 268.30710937 77.78957031 268.30710937 76.5546875 269.640625 C55.91802468 291.2013175 28.75116963 304.84245076 0 312 C-1.88332031 312.48146484 -1.88332031 312.48146484 -3.8046875 312.97265625 C-24.74414264 317.64438645 -51.25819436 317.48612873 -72 312 C-73.17175781 311.70198486 -73.17175781 311.70198486 -74.3671875 311.39794922 C-102.25939904 304.14792928 -126.0893296 290.77856404 -147 271 C-148.30710937 269.78957031 -148.30710937 269.78957031 -149.640625 268.5546875 C-171.2013175 247.91802468 -184.84245076 220.75116963 -192 192 C-192.48146484 190.11667969 -192.48146484 190.11667969 -192.97265625 188.1953125 C-197.64438645 167.25585736 -197.48612873 140.74180564 -192 120 C-191.80132324 119.21882813 -191.60264648 118.43765625 -191.39794922 117.6328125 C-184.14792928 89.74060096 -170.77856404 65.9106704 -151 45 C-150.19304687 44.12859375 -149.38609375 43.2571875 -148.5546875 42.359375 C-127.91802468 20.7986825 -100.75116963 7.15754924 -72 0 C-70.74445313 -0.32097656 -69.48890625 -0.64195313 -68.1953125 -0.97265625 C-47.25585736 -5.64438645 -20.74180564 -5.48612873 0 0 Z " fill="#191A1A" transform="translate(195,3)"/>
<path d="M0 0 C3.58148277 0.20272544 6.19530287 0.46495447 9.21484375 2.47265625 C11.8981054 6.27149715 11.43390902 9.7230087 11.25 14.25 C11.23195313 15.09046875 11.21390625 15.9309375 11.1953125 16.796875 C11.14830798 18.86507395 11.07656724 20.93268441 11 23 C11.4125 22.28714844 11.825 21.57429688 12.25 20.83984375 C17.895888 11.47623932 24.1841426 4.13770607 35 1 C39.97240041 0.10055556 43.80795485 0.54145719 48.25 3 C53.40005541 6.60812265 56.84129392 11.80493777 58 18 C59.5967406 33.39714146 54.29043684 50.46410437 44.72363281 62.62207031 C39.70169466 68.60907843 34.20892157 74.24423029 28 79 C27.34 79 26.68 79 26 79 C31.83362265 102.60400616 31.83362265 102.60400616 46 121 C48.41174293 121.83425785 48.41174293 121.83425785 51 121 C59.43426166 113.50287853 63.69853567 101.22763035 68 91 C68.66 91 69.32 91 70 91 C69.4146142 96.31028547 67.64938489 100.54979507 65.375 105.3125 C64.83758179 106.43809326 64.83758179 106.43809326 64.28930664 107.58642578 C57.38889942 121.64930029 57.38889942 121.64930029 50.5625 125.0625 C45.60806067 126.36629982 41.68931917 127.22101273 36.9609375 125.07421875 C27.20322779 118.6883817 23.0161459 106.43827783 19 96 C18.61070313 96.44730469 18.22140625 96.89460938 17.8203125 97.35546875 C12.88616724 102.68752895 6.74600315 107.78186894 -0.8046875 108.12890625 C-1.52914062 108.08636719 -2.25359375 108.04382813 -3 108 C-3.0825 108.886875 -3.165 109.77375 -3.25 110.6875 C-4.38547704 115.7025236 -6.78435789 118.18957192 -11 121 C-13.6875 121.125 -13.6875 121.125 -16 121 C-17.60470241 116.98824398 -16.2176313 113.98286267 -15 110 C-16.05832031 109.76667969 -17.11664063 109.53335938 -18.20703125 109.29296875 C-29.78128806 106.57098794 -40.54231087 102.56940237 -51.48168945 97.92260742 C-63.82855552 92.69314253 -76.56494977 87.74072339 -90.0390625 91.94921875 C-94.92475217 94.28874084 -99.02719737 97.34083969 -103 101 C-102.43858582 97.35080783 -101.14170335 95.82498339 -98.375 93.4375 C-97.72273438 92.85871094 -97.07046875 92.27992188 -96.3984375 91.68359375 C-87.07544103 85.13927538 -75.92222295 85.37389411 -65 87 C-56.26335095 89.19884472 -47.87884162 92.41601683 -39.484375 95.65771484 C-30.76364724 99.01719923 -22.19950621 102.25526606 -13 104 C-12.33696423 100.1496706 -11.68034021 96.29829665 -11.02856445 92.44604492 C-10.70241932 90.52536059 -10.37182379 88.60543356 -10.04101562 86.68554688 C-6.56359229 66.08051609 -4.40441354 45.45982523 -2.875 24.625 C-2.62323837 21.22308902 -2.36961332 17.82136375 -2.11038208 14.42001343 C-1.95115989 12.32922562 -1.7962677 10.23810247 -1.64620972 8.14663696 C-1.57588531 7.2199118 -1.50556091 6.29318665 -1.43310547 5.33837891 C-1.37331512 4.5217276 -1.31352478 3.70507629 -1.25192261 2.86367798 C-1 1 -1 1 0 0 Z " fill="#F2F2F2" transform="translate(108,61)"/>
<path d="M0 0 C4.88592336 3.00944554 8.62350268 7.73381391 10.69140625 13.10546875 C12.15079007 20.08353086 12.23293774 27.83153336 9.15625 34.328125 C8.49625 34.328125 7.83625 34.328125 7.15625 34.328125 C7.19105469 33.03777344 7.22585937 31.74742188 7.26171875 30.41796875 C7.28987342 28.70053394 7.31717177 26.98308493 7.34375 25.265625 C7.36888672 24.41806641 7.39402344 23.57050781 7.41992188 22.69726562 C7.48515699 17.06530106 6.69814934 13.35429875 4.15625 8.328125 C3.66125 6.843125 3.66125 6.843125 3.15625 5.328125 C1.37396064 4.18602683 1.37396064 4.18602683 -0.84375 3.328125 C-1.545 2.956875 -2.24625 2.585625 -2.96875 2.203125 C-8.54886338 0.50482962 -13.81798369 0.41079686 -19.15625 2.828125 C-23.74869787 7.10016953 -27.47270887 12.44131707 -28.08203125 18.82421875 C-28.10652344 19.79488281 -28.13101563 20.76554687 -28.15625 21.765625 C-28.19363281 22.71308594 -28.23101562 23.66054687 -28.26953125 24.63671875 C-26.94402912 36.12845738 -21.05825761 46.43658898 -15.90722656 56.61645508 C-5.84375 76.58237146 -5.84375 76.58237146 -5.84375 84.328125 C-5.18890625 84.30492187 -4.5340625 84.28171875 -3.859375 84.2578125 C-2.49039063 84.23074219 -2.49039063 84.23074219 -1.09375 84.203125 C-0.21203125 84.17992187 0.6696875 84.15671875 1.578125 84.1328125 C12.41477125 84.72433249 21.99042712 87.81437937 32.03125 91.703125 C57.7471694 102.41538539 57.7471694 102.41538539 84.53125 100.578125 C91.43562878 97.44275046 94.71177041 93.96193754 98.15625 87.328125 C98.8359375 89.0859375 98.8359375 89.0859375 99.15625 91.328125 C94.59042353 99.21455254 85.80807357 105.01255178 77.15625 107.328125 C57.7664167 109.08526479 41.37634255 102.9896875 23.95605469 95.30566406 C22.74723633 94.78069336 21.53841797 94.25572266 20.29296875 93.71484375 C19.20717529 93.23233154 18.12138184 92.74981934 17.00268555 92.25268555 C14.04349238 91.29149981 12.97959854 91.19548925 10.15625 92.328125 C9.19589844 92.7096875 8.23554688 93.09125 7.24609375 93.484375 C6.20582031 93.9278125 5.16554687 94.37125 4.09375 94.828125 C1.12509267 96.09044653 -1.78306162 97.30789554 -4.84375 98.328125 C-5.69756958 101.08656899 -5.69756958 101.08656899 -6.21875 104.390625 C-8.11025049 113.3385004 -11.41266918 118.99713224 -18.84375 124.328125 C-22.27366538 125.47143013 -25.0423916 125.53194151 -28.65625 125.578125 C-30.46029297 125.61679687 -30.46029297 125.61679687 -32.30078125 125.65625 C-36.16894675 125.29800755 -38.55231566 124.35513688 -41.84375 122.328125 C-43.6275923 118.76044041 -43.57978831 115.2062428 -42.84375 111.328125 C-39.24595946 104.88819272 -33.75026356 101.44463722 -26.84375 99.328125 C-23.52800034 98.52234226 -20.21343479 97.86277227 -16.84375 97.328125 C-16.84375 95.348125 -16.84375 93.368125 -16.84375 91.328125 C-19.31875 92.318125 -19.31875 92.318125 -21.84375 93.328125 C-21.51375 92.008125 -21.18375 90.688125 -20.84375 89.328125 C-18.86375 88.833125 -18.86375 88.833125 -16.84375 88.328125 C-18.48635164 78.33563169 -21.97397761 70.52587 -26.63769531 61.66601562 C-28.94971457 57.18425522 -31.1101732 52.62935976 -33.28125 48.078125 C-33.71832275 47.17255859 -34.15539551 46.26699219 -34.60571289 45.33398438 C-35.01297607 44.48126953 -35.42023926 43.62855469 -35.83984375 42.75 C-36.20263428 41.99299805 -36.5654248 41.23599609 -36.93920898 40.45605469 C-40.32173864 32.49866509 -40.20500727 21.47418636 -38.0078125 13.16796875 C-34.97726932 6.58823238 -29.99465248 1.37270176 -23.48046875 -1.8359375 C-15.81168844 -4.26722489 -7.23640972 -3.33626682 0 0 Z " fill="#F2F2F2" transform="translate(218.84375,62.671875)"/>
<path d="M0 0 C3.15150486 1.82086947 4.62435033 3.28447681 6.3125 6.5 C9.17392389 21.06724891 5.1163394 35.75988538 -3 48 C-8.55223442 55.75904218 -15.17025047 64.38910792 -23.5625 69.1875 C-26.30354263 70.79144412 -26.30354263 70.79144412 -26.5 73.875 C-26.08827189 77.01136132 -26.08827189 77.01136132 -25 79.9375 C-23.77369901 83.69304679 -23.37975642 86.07179067 -24 90 C-28.24745959 95.93665101 -33.70236881 99.4149364 -40.875 100.6875 C-41.90625 100.790625 -42.9375 100.89375 -44 101 C-43.38761323 94.84551297 -42.44738585 88.87570714 -41.25 82.8125 C-39.82443634 75.41487348 -38.71064541 68.01107726 -37.80078125 60.53515625 C-37.69802887 59.70242691 -37.59527649 58.86969757 -37.4894104 58.01173401 C-36.97521628 53.82748879 -36.48074294 49.64226346 -36.01464844 45.45239258 C-34.11866445 29.29354809 -28.9726203 15.02664452 -15.97265625 4.40625 C-10.96517939 0.83656353 -6.24455113 -0.80947885 0 0 Z " fill="#191B1A" transform="translate(150,65)"/>
<path d="M0 0 C3.57432933 3.15336504 7.06690941 6.38914046 10.49755859 9.69824219 C11.06095947 10.23247803 11.62436035 10.76671387 12.20483398 11.31713867 C16.46154659 15.43964375 20.04271126 19.78224175 23.43505859 24.63574219 C23.94866943 25.36792969 24.46228027 26.10011719 24.99145508 26.85449219 C31.71962306 36.67153442 37.21829916 47.22083418 40.49755859 58.69824219 C39.83755859 58.69824219 39.17755859 58.69824219 38.49755859 58.69824219 C38.19688477 58.02470703 37.89621094 57.35117188 37.58642578 56.65722656 C31.18193908 42.45407919 24.57892552 29.6139462 14.49755859 17.69824219 C13.43601563 16.38533203 13.43601563 16.38533203 12.35302734 15.04589844 C7.38856786 9.1310129 1.63102631 4.36097061 -4.50244141 -0.30175781 C-5.49115234 -1.05585937 -6.47986328 -1.80996094 -7.49853516 -2.58691406 C-30.19370474 -19.10537083 -55.61386393 -25.5115702 -83.31494141 -25.67675781 C-84.01809479 -25.68470367 -84.72124817 -25.69264954 -85.44570923 -25.70083618 C-94.82903952 -25.78223764 -103.41220196 -24.82148857 -112.50244141 -22.30175781 C-113.74638672 -21.99753906 -114.99033203 -21.69332031 -116.27197266 -21.37988281 C-150.79873718 -11.98363881 -176.25206098 10.95684186 -193.93994141 41.62402344 C-196.16408891 46.00003365 -197.79622606 50.53155367 -199.36181641 55.17871094 C-199.73822266 56.01015625 -200.11462891 56.84160156 -200.50244141 57.69824219 C-201.98744141 58.19324219 -201.98744141 58.19324219 -203.50244141 58.69824219 C-198.10896812 39.8210857 -186.95137683 23.74543987 -173.50244141 9.69824219 C-172.81923828 8.951875 -172.13603516 8.20550781 -171.43212891 7.43652344 C-127.85058172 -38.63769527 -47.56040293 -41.20768093 0 0 Z " fill="#D4D4D4" transform="translate(240.50244140625,55.3017578125)"/>
<path d="M0 0 C3.24139686 1.62069843 3.86991335 5.09843697 5.1875 8.3125 C18.73107012 40.1142859 43.10992135 62.75709873 74.48828125 76.53125 C105.77339105 88.58943568 142.35203398 87.35279762 173 74 C205.56674336 58.68220139 227.27763569 32.81434944 241 0 C242.37748712 4.13246136 240.7713229 6.60311841 239.0625 10.375 C238.58586914 11.4414978 238.58586914 11.4414978 238.09960938 12.52954102 C223.36833234 44.65908797 196.35260512 67.97767266 163.69433594 80.53564453 C140.94217061 88.82668783 112.47869425 90.6850932 89 84 C87.78441406 83.6596875 86.56882812 83.319375 85.31640625 82.96875 C52.46706519 72.85074276 24.11312467 50.82051086 7.76953125 20.41577148 C0 5.59584632 0 5.59584632 0 0 Z " fill="#DBDBDB" transform="translate(38,192)"/>
<path d="M0 0 C-0.63371903 7.44619866 -2.74574148 14.20912271 -8.1875 19.5625 C-11.67709856 22.26825785 -14.67817514 22.78409918 -19.0390625 22.44921875 C-21 22 -21 22 -23.125 20.4375 C-24.39749378 16.89269589 -23.95266487 14.62012651 -23 11 C-19.7476273 5.40591895 -14.59823737 3.01577036 -8.55078125 1.30859375 C-2.86800699 0 -2.86800699 0 0 0 Z " fill="#191B1A" transform="translate(202,163)"/>
<path d="M0 0 C1.37748712 4.13246136 -0.2286771 6.60311841 -1.9375 10.375 C-2.25525391 11.08599854 -2.57300781 11.79699707 -2.90039062 12.52954102 C-17.06743025 43.428462 -43.37618306 67.71240674 -75.16796875 79.60546875 C-85.6715833 83.32110986 -85.6715833 83.32110986 -91 83 C-88.44032638 81.29355092 -86.8152794 80.50774906 -83.96484375 79.625 C-49.82592219 68.63938025 -23.52755857 46.86495351 -6.99121094 15.00292969 C-4.48678896 10.0738444 -2.13362413 5.10214467 0 0 Z " fill="#DEDEDE" transform="translate(279,192)"/>
<path d="M0 0 C5.78691335 0.51252856 10.16202151 2.85624322 15.1875 5.5625 C16.03320557 6.0150415 16.87891113 6.46758301 17.75024414 6.93383789 C29.20085032 13.16794703 38.65820907 20.98918753 48 30 C48.56340088 30.53423584 49.12680176 31.06847168 49.70727539 31.61889648 C53.96398799 35.74140156 57.54515267 40.08399956 60.9375 44.9375 C61.45111084 45.6696875 61.96472168 46.401875 62.49389648 47.15625 C69.22206447 56.97329223 74.72074057 67.522592 78 79 C77.34 79 76.68 79 76 79 C75.69932617 78.32646484 75.39865234 77.65292969 75.08886719 76.95898438 C68.68438049 62.755837 62.08136692 49.91570402 52 38 C51.29230469 37.12472656 50.58460938 36.24945313 49.85546875 35.34765625 C44.89100927 29.43277072 39.13346772 24.66272842 33 20 C32.01128906 19.24589844 31.02257812 18.49179687 30.00390625 17.71484375 C20.86114983 11.06037809 10.75913683 5.58637894 0 2 C0 1.34 0 0.68 0 0 Z " fill="#DADADA" transform="translate(203,35)"/>
<path d="M0 0 C0.99 0.33 1.98 0.66 3 1 C1.51113281 1.87398437 1.51113281 1.87398437 -0.0078125 2.765625 C-25.37153082 17.9505447 -46.27740891 40.03822434 -55.859375 68.48046875 C-56.23578125 69.31191406 -56.6121875 70.14335938 -57 71 C-58.485 71.495 -58.485 71.495 -60 72 C-54.60652672 53.12284351 -43.44893543 37.04719768 -30 23 C-29.31679687 22.25363281 -28.63359375 21.50726563 -27.9296875 20.73828125 C-20.04295939 12.40046721 -10.2624867 5.18046391 0 0 Z " fill="#D6D6D6" transform="translate(97,42)"/>
<path d="M0 0 C6.70088975 7.08379774 7.33174135 13.26280179 7.30078125 22.6953125 C7.01156308 25.87295627 6.35710607 28.13439755 5 31 C4.34 31 3.68 31 3 31 C3.03480469 29.70964844 3.06960937 28.41929688 3.10546875 27.08984375 C3.13362342 25.37240894 3.16092177 23.65495993 3.1875 21.9375 C3.21263672 21.08994141 3.23777344 20.24238281 3.26367188 19.36914062 C3.32890699 13.73717606 2.54189934 10.02617375 0 5 C-0.33 4.01 -0.66 3.02 -1 2 C-2.78228936 0.85790183 -2.78228936 0.85790183 -5 0 C-5.7425 -0.350625 -6.485 -0.70125 -7.25 -1.0625 C-10.83824161 -2.28576419 -14.22938062 -2.61654718 -18 -3 C-18 -3.33 -18 -3.66 -18 -4 C-10.24089783 -5.36925332 -6.32389823 -4.84383694 0 0 Z " fill="#DADADA" transform="translate(223,66)"/>
<path d="M0 0 C0.66 0 1.32 0 2 0 C1.41454092 5.31095025 -0.35176188 9.54881852 -2.625 14.3125 C-2.98037842 15.06144531 -3.33575684 15.81039062 -3.7019043 16.58203125 C-6.44296241 22.19447106 -9.42912964 27.64899429 -14 32 C-15.485 32.495 -15.485 32.495 -17 33 C-16.64290912 29.9052124 -15.79234106 28.75979485 -13.70703125 26.34765625 C-10.75240399 22.88145789 -8.83308886 19.15281606 -6.875 15.0625 C-6.54113281 14.38509766 -6.20726562 13.70769531 -5.86328125 13.00976562 C-3.76959647 8.72797498 -1.84484018 4.3943864 0 0 Z " fill="#EAEBEA" transform="translate(176,152)"/>
<path d="M0 0 C0 0.33 0 0.66 0 1 C-15.82518379 4.95041735 -31.81571729 4.29911242 -48 4 C-48 3.67 -48 3.34 -48 3 C-42.12195051 2.02032508 -36.3252122 1.76158912 -30.375 1.5625 C-22.99052716 1.28478706 -15.91094414 0.75961242 -8.65625 -0.6953125 C-5.58177542 -1.04797282 -3.01665882 -0.62994934 0 0 Z " fill="#C6C6C6" transform="translate(191,275)"/>
<path d="M0 0 C2 1 2 1 3 3 C2.030625 3.33 1.06125 3.66 0.0625 4 C-8.29100691 7.6356356 -13.61026082 14.1117513 -17.61328125 22.09375 C-18.07089844 22.7228125 -18.52851562 23.351875 -19 24 C-20.32 24 -21.64 24 -23 24 C-21.84229101 20.52687303 -20.34045071 18.83317718 -18 16 C-17.49210937 15.30261719 -16.98421875 14.60523437 -16.4609375 13.88671875 C-12.03087395 7.86871004 -7.26345595 2.42115198 0 0 Z " fill="#DEDEDE" transform="translate(140,63)"/>
<path d="M0 0 C2.4375 0.8125 2.4375 0.8125 4.4375 2.8125 C4.1105244 5.42830479 3.61710932 7.45328137 2.4375 9.8125 C-0.9375 10 -0.9375 10 -4.5625 9.8125 C-6.5625 6.8125 -6.5625 6.8125 -6.375 4.8125 C-4.96467028 1.34091914 -3.91824225 -0.28670065 0 0 Z " fill="#5F605F" transform="translate(78.5625,209.1875)"/>
<path d="M0 0 C0.99 0.33 1.98 0.66 3 1 C1.51113281 1.87398437 1.51113281 1.87398437 -0.0078125 2.765625 C-11.90416411 9.89165011 -22.28801378 18.10782851 -32 28 C-32.66 27.67 -33.32 27.34 -34 27 C-23.90325773 16.29946583 -13.22912271 6.70928061 0 0 Z " fill="#E1E1E1" transform="translate(97,42)"/>
<path d="M0 0 C1.58294782 -0.05437607 3.16644256 -0.09296271 4.75 -0.125 C5.63171875 -0.14820313 6.5134375 -0.17140625 7.421875 -0.1953125 C10.1135858 0.00860498 11.69904974 0.63448279 14 2 C11.03653214 4.47186455 8.45958311 5.66248361 4.75 6.6875 C3.85796875 6.93886719 2.9659375 7.19023437 2.046875 7.44921875 C1.37140625 7.63097656 0.6959375 7.81273437 0 8 C0 5.36 0 2.72 0 0 Z " fill="#282A29" transform="translate(214,150)"/>
<path d="M0 0 C0.55800293 0.1853833 1.11600586 0.3707666 1.69091797 0.56176758 C9.06802118 2.90376402 16.51173374 4.33846834 24.125 5.6875 C25.36765625 5.91244141 26.6103125 6.13738281 27.890625 6.36914062 C30.92620143 6.91787944 33.96261525 7.46137726 37 8 C37 8.33 37 8.66 37 9 C29.37678893 9.4772793 22.58689692 8.95740106 15.1875 7.1875 C14.495354 7.02217773 13.80320801 6.85685547 13.09008789 6.68652344 C8.24660478 5.45962324 3.65267945 3.81834841 -1 2 C-0.67 1.34 -0.34 0.68 0 0 Z " fill="#CFCFCF" transform="translate(113,269)"/>
<path d="M0 0 C0 0.66 0 1.32 0 2 C-1.17755859 2.23783203 -1.17755859 2.23783203 -2.37890625 2.48046875 C-10.98350456 4.39142862 -16.77437919 6.5741178 -22 14 C-22.66 14 -23.32 14 -24 14 C-22.60615398 8.73435948 -19.30640363 6.02494344 -15 3 C-4.59130435 -2.29565217 -4.59130435 -2.29565217 0 0 Z " fill="#DCDDDD" transform="translate(200,162)"/>
<path d="M0 0 C0.33 1.65 0.66 3.3 1 5 C-1.64 6.65 -4.28 8.3 -7 10 C-7 7.37886292 -6.68707555 5.49064888 -6 3 C-7.65 3.33 -9.3 3.66 -11 4 C-7.64918101 0.31409911 -4.96535219 -1.77334007 0 0 Z " fill="#7E7F7F" transform="translate(74,197)"/>
<path d="M0 0 C-3.28804301 1.79926809 -6.59253642 2.83559595 -10.1875 3.875 C-15.07464898 5.33016234 -19.56929793 7.02522292 -24.09765625 9.36328125 C-26.43194469 10.14457286 -27.70734604 9.7914507 -30 9 C-7.11304463 -2.00624336 -7.11304463 -2.00624336 0 0 Z " fill="#D5D5D5" transform="translate(128,32)"/>
<path d="M0 0 C-0.33 0.66 -0.66 1.32 -1 2 C-6.05028594 0.90577138 -11.06017672 -0.26583679 -16.0625 -1.5625 C-20.7176665 -2.74268306 -25.22271197 -3.54064538 -30 -4 C-30 -4.33 -30 -4.66 -30 -5 C-20.05220415 -7.50497033 -9.40259677 -3.1240886 0 0 Z " fill="#CCCDCD" transform="translate(204,34)"/>
<path d="M0 0 C1.98 0 3.96 0 6 0 C6.66666667 3.33333333 7.33333333 6.66666667 8 10 C6.02 9.01 4.04 8.02 2 7 C1.67 8.32 1.34 9.64 1 11 C-0.28317892 7.15046324 -0.06643637 4.05261865 0 0 Z " fill="#AEAEAE" transform="translate(171,250)"/>
<path d="M0 0 C-2.26358592 2.42991971 -4.65371269 4.19734515 -7.4375 6 C-10.37383558 7.90787286 -13.21880574 9.87134107 -16 12 C-15.44846785 8.26275228 -14.03850239 6.7764009 -11.1875 4.375 C-10.50042969 3.78460938 -9.81335938 3.19421875 -9.10546875 2.5859375 C-3.93227092 -1.31075697 -3.93227092 -1.31075697 0 0 Z " fill="#E0E0E0" transform="translate(21,150)"/>
<path d="M0 0 C3.31038651 1.65519326 3.78867011 4.65442221 5 8 C4.67 8.99 4.34 9.98 4 11 C3.67 10.34 3.34 9.68 3 9 C0.47266765 8.34444881 0.47266765 8.34444881 -2 8 C-2.33 8.99 -2.66 9.98 -3 11 C-3.33 10.34 -3.66 9.68 -4 9 C-3.22265625 6.8359375 -3.22265625 6.8359375 -2.0625 4.375 C-1.68222656 3.55773437 -1.30195313 2.74046875 -0.91015625 1.8984375 C-0.60980469 1.27195313 -0.30945313 0.64546875 0 0 Z " fill="#858585" transform="translate(159,251)"/>
<path d="M0 0 C2.97 1.65 5.94 3.3 9 5 C8.67 5.66 8.34 6.32 8 7 C6.68 7 5.36 7 4 7 C3.67 8.65 3.34 10.3 3 12 C-0.30243306 8.69756694 0.35002224 4.55028914 0 0 Z " fill="#878787" transform="translate(214,233)"/>
<path d="M0 0 C0.66 1.32 1.32 2.64 2 4 C-1.87792288 8.92908146 -5.76116833 12.5423711 -11 16 C-11.33 15.34 -11.66 14.68 -12 14 C-9.11731609 11.01760061 -5.94836742 8.44124585 -2.7421875 5.81640625 C-0.85631975 3.85019884 -0.38573588 2.65923976 0 0 Z " fill="#D1D1D1" transform="translate(126,151)"/>
<path d="M0 0 C0.6875 1.75390625 0.6875 1.75390625 1 4 C-2.36323307 9.56482313 -7.63899664 13.49893658 -13 17 C-13.33 16.34 -13.66 15.68 -14 15 C-11.99951185 12.88398214 -10.01773069 11.30297443 -7.5625 9.75 C-3.69601639 7.07131326 -2.05367939 4.18950595 0 0 Z " fill="#E6E6E6" transform="translate(317,150)"/>
<path d="M0 0 C2 2 2 2 2.265625 4.20703125 C2.21379833 12.84912813 2.21379833 12.84912813 0 17 C-0.66 17 -1.32 17 -2 17 C-1.34 11.39 -0.68 5.78 0 0 Z " fill="#DBDBDB" transform="translate(228,80)"/>
<path d="M0 0 C0.99 0.33 1.98 0.66 3 1 C-0.63 4.63 -4.26 8.26 -8 12 C-8.66 11.34 -9.32 10.68 -10 10 C-6.7 6.7 -3.4 3.4 0 0 Z " fill="#CECECE" transform="translate(253,235)"/>
<path d="M0 0 C1.32 0.66 2.64 1.32 4 2 C4 2.66 4 3.32 4 4 C1.03 4 -1.94 4 -5 4 C-4.01 4.99 -3.02 5.98 -2 7 C-2.33 7.66 -2.66 8.32 -3 9 C-4.00596297 8.0479279 -5.00461563 7.08812654 -6 6.125 C-6.556875 5.59132812 -7.11375 5.05765625 -7.6875 4.5078125 C-9 3 -9 3 -9 1 C-6.03 1.33 -3.06 1.66 0 2 C0 1.34 0 0.68 0 0 Z " fill="#AAAAAA" transform="translate(232,225)"/>
<path d="M0 0 C4.95 0.99 4.95 0.99 10 2 C8.02 2.99 8.02 2.99 6 4 C5.18828772 6.55519921 5.18828772 6.55519921 5 9 C2.9754262 7.06745228 1.57894208 5.36841312 0 3 C0 2.01 0 1.02 0 0 Z " fill="#909090" transform="translate(236,212)"/>
<path d="M0 0 C0.66 0 1.32 0 2 0 C1.40895235 4.84659077 0.02055843 8.60748167 -2 13 C-2.99 13 -3.98 13 -5 13 C-4.54554036 11.58208592 -4.08625056 10.16571954 -3.625 8.75 C-3.24214844 7.56664062 -3.24214844 7.56664062 -2.8515625 6.359375 C-2.04826333 4.13372042 -1.10288338 2.09068328 0 0 Z " fill="#DDDEDD" transform="translate(176,152)"/>
<path d="M0 0 C6.86515862 -0.26404456 13.25846717 0.74158054 20 2 C20 2.33 20 2.66 20 3 C6.3667426 3.3690205 6.3667426 3.3690205 0 1 C0 0.67 0 0.34 0 0 Z " fill="#DADADA" transform="translate(130,275)"/>
<path d="M0 0 C1.32 0.66 2.64 1.32 4 2 C2.75443908 2.81928886 1.50333365 3.63015186 0.25 4.4375 C-0.44609375 4.88996094 -1.1421875 5.34242188 -1.859375 5.80859375 C-3.92957014 6.9608009 -5.68696324 7.54676982 -8 8 C-8.33 7.01 -8.66 6.02 -9 5 C-6.03 3.68 -3.06 2.36 0 1 C0 0.67 0 0.34 0 0 Z " fill="#DDDDDD" transform="translate(227,151)"/>
<path d="M0 0 C0.33 0 0.66 0 1 0 C0.49228528 5.96564796 -1.38592128 10.63809899 -4 16 C-4.66 16 -5.32 16 -6 16 C-4.25192871 10.53262809 -2.34205919 5.24175152 0 0 Z " fill="#D3D4D3" transform="translate(43,98)"/>
<path d="M0 0 C2.62187494 1.04874998 3.79371361 1.64931313 5.25 4.125 C5.4975 4.74375 5.745 5.3625 6 6 C4.02 6.66 2.04 7.32 0 8 C0 5.36 0 2.72 0 0 Z " fill="#898989" transform="translate(187,247)"/>
<path d="M0 0 C0.33 0.66 0.66 1.32 1 2 C-0.24282012 4.45038293 -1.52882339 6.773325 -2.9375 9.125 C-3.32357422 9.78371094 -3.70964844 10.44242188 -4.10742188 11.12109375 C-5.06446578 12.751613 -6.03132815 14.37636184 -7 16 C-7.7109375 14.35546875 -7.7109375 14.35546875 -8 12 C-6.6015625 9.23828125 -6.6015625 9.23828125 -4.625 6.3125 C-3.97789063 5.33925781 -3.33078125 4.36601563 -2.6640625 3.36328125 C-1 1 -1 1 0 0 Z " fill="#DFE0E0" transform="translate(52,84)"/>
<path d="M0 0 C0.33 0.99 0.66 1.98 1 3 C-0.21484375 5.26171875 -0.21484375 5.26171875 -1.9375 7.6875 C-2.78634766 8.89986328 -2.78634766 8.89986328 -3.65234375 10.13671875 C-4.09707031 10.75160156 -4.54179687 11.36648437 -5 12 C-5.66 11.34 -6.32 10.68 -7 10 C-3.535 5.05 -3.535 5.05 0 0 Z " fill="#D7D7D7" transform="translate(270,212)"/>
<path d="M0 0 C2.475 0.99 2.475 0.99 5 2 C4.67 2.66 4.34 3.32 4 4 C1.49609375 4.6328125 1.49609375 4.6328125 -1.5625 5.125 C-3.08037109 5.37636719 -3.08037109 5.37636719 -4.62890625 5.6328125 C-5.80259766 5.81457031 -5.80259766 5.81457031 -7 6 C-7 5.34 -7 4.68 -7 4 C-4.36 3.67 -1.72 3.34 1 3 C0.67 2.01 0.34 1.02 0 0 Z " fill="#B0B1B0" transform="translate(249,198)"/>
<path d="M0 0 C2 3 2 3 1.6875 4.75 C1.460625 5.4925 1.23375 6.235 1 7 C0.6503582 9.33094534 0.31445513 11.66404762 0 14 C-0.33 14 -0.66 14 -1 14 C-1.33 9.71 -1.66 5.42 -2 1 C-1.34 0.67 -0.68 0.34 0 0 Z " fill="#B2B2B2" transform="translate(228,75)"/>
<path d="M0 0 C3.21524305 1.40844718 5.32183868 3.10344786 7.75 5.625 C8.67039063 6.57246094 8.67039063 6.57246094 9.609375 7.5390625 C10.29773438 8.26222656 10.29773438 8.26222656 11 9 C10.34 9.66 9.68 10.32 9 11 C7.49703315 9.35687553 5.99769719 7.71042916 4.5 6.0625 C3.6646875 5.14597656 2.829375 4.22945313 1.96875 3.28515625 C0 1 0 1 0 0 Z " fill="#E3E3E3" transform="translate(246,62)"/>
<path d="M0 0 C-3.26397448 1.8830622 -6.24438133 2.67342446 -10 3 C-10.66 2.34 -11.32 1.68 -12 1 C-7.53763531 -0.80619523 -4.68965706 -1.11658501 0 0 Z " fill="#BCBCBC" transform="translate(128,32)"/>
<path d="M0 0 C0.99 0.33 1.98 0.66 3 1 C-0.625 5.875 -0.625 5.875 -4 7 C-3.43628586 3.73045798 -2.50037734 2.17424117 0 0 Z " fill="#DCDCDC" transform="translate(163,178)"/>
<path d="M0 0 C3.7910119 1.44950455 7.3874638 3.15172566 11 5 C10.01 5.66 9.02 6.32 8 7 C6.66144944 6.21718695 5.32926356 5.42348123 4 4.625 C3.2575 4.18414062 2.515 3.74328125 1.75 3.2890625 C1.1725 2.86367188 0.595 2.43828125 0 2 C0 1.34 0 0.68 0 0 Z " fill="#D8D8D8" transform="translate(87,256)"/>
<path d="M0 0 C3.7952131 1.49097658 5.61042731 3.75700849 8 7 C5 7 5 7 2.3125 4.625 C0 2 0 2 0 0 Z " fill="#CDCDCD" transform="translate(68,240)"/>
<path d="M0 0 C-2.39509338 2.89932357 -4.31245243 3.50168276 -8 4 C-7 1 -7 1 -5.125 -0.25 C-3 -1 -3 -1 0 0 Z " fill="#E7E7E7" transform="translate(21,150)"/>
<path d="M0 0 C0.99 0.33 1.98 0.66 3 1 C2.01 2.98 1.02 4.96 0 7 C-1.32 7 -2.64 7 -4 7 C-3.02391783 4.07175348 -1.89213369 2.38573379 0 0 Z " fill="#CFD0D0" transform="translate(121,80)"/>
<path d="M0 0 C2.475 0.495 2.475 0.495 5 1 C5 1.99 5 2.98 5 4 C3.35 4 1.7 4 0 4 C0 2.68 0 1.36 0 0 Z " fill="#151515" transform="translate(172,251)"/>
<path d="M0 0 C-1 3 -1 3 -4.0625 4.6875 C-5.031875 5.120625 -6.00125 5.55375 -7 6 C-6.75 4.125 -6.75 4.125 -6 2 C-3.85331506 0.61504198 -2.56128588 0 0 0 Z " fill="#DDDDDD" transform="translate(121,161)"/>
<path d="M0 0 C3.91402949 1.26941497 5.79072873 2.51167694 8 6 C5 6 5 6 3.61328125 4.6875 C2.40885417 3.125 1.20442708 1.5625 0 0 Z " fill="#D3D3D3" transform="translate(239,56)"/>
<path d="M0 0 C2 1 2 1 3 3 C1.02 3.66 -0.96 4.32 -3 5 C-3 3.68 -3 2.36 -3 1 C-2.01 0.67 -1.02 0.34 0 0 Z " fill="#D2D2D2" transform="translate(140,63)"/>
</svg>
